<svg width="24" height="24" viewBox="0 0 24 24" fill="none" xmlns="http://www.w3.org/2000/svg">
<g id="icon">
<path id="Add" d="M12 20C11.696 20 11.4 19.888 11.184 19.672C10.968 19.456 10.848 19.16 10.856 18.856V13.144H5.144C4.84 13.144 4.544 13.032 4.328 12.816C4.112 12.6 4 12.304 4 12C4 11.696 4.112 11.4 4.328 11.184C4.544 10.968 4.84 10.848 5.144 10.856H10.856V5.144C10.856 4.84 10.968 4.544 11.184 4.328C11.4 4.112 11.696 4 12 4C12.304 4 12.6 4.112 12.816 4.328C13.032 4.544 13.152 4.84 13.144 5.144V10.856H18.856C19.16 10.856 19.456 10.968 19.672 11.184C19.888 11.4 20.008 11.696 20 12C20 12.304 19.888 12.6 19.672 12.816C19.456 13.032 19.16 13.152 18.856 13.144H13.144V18.856C13.144 19.16 13.032 19.456 12.816 19.672C12.6 19.888 12.304 20.008 12 20Z" fill="white"/>
</g>
</svg>
