<svg width="32" height="32" viewBox="0 0 32 32" fill="none" xmlns="http://www.w3.org/2000/svg">
<g id="Functional_UI_-_ic_Contact" clip-path="url(#clip0_890_2082)">
<path id="Shape" fill-rule="evenodd" clip-rule="evenodd" d="M16 2.40002C13.3102 2.40002 10.6808 3.19765 8.44424 4.69204C6.20774 6.18643 4.46459 8.31045 3.43524 10.7955C2.40589 13.2806 2.13656 16.0151 2.66132 18.6533C3.18608 21.2914 4.48135 23.7147 6.38335 25.6167C8.28534 27.5187 10.7086 28.8139 13.3468 29.3387C15.9849 29.8635 18.7194 29.5941 21.2045 28.5648C23.6896 27.5354 25.8136 25.7923 27.308 23.5558C28.8024 21.3193 29.6 18.6898 29.6 16C29.6 14.214 29.2482 12.4456 28.5648 10.7955C27.8813 9.1455 26.8795 7.64625 25.6167 6.38337C24.3538 5.1205 22.8545 4.11873 21.2045 3.43526C19.5545 2.7518 17.786 2.40002 16 2.40002ZM16 28C13.6266 28 11.3065 27.2962 9.33316 25.9777C7.35977 24.6591 5.8217 22.7849 4.91345 20.5922C4.00519 18.3995 3.76755 15.9867 4.23058 13.6589C4.6936 11.3312 5.83649 9.19297 7.51472 7.51474C9.19295 5.83651 11.3311 4.69362 13.6589 4.2306C15.9867 3.76758 18.3995 4.00522 20.5922 4.91347C22.7849 5.82172 24.6591 7.35979 25.9776 9.33318C27.2962 11.3066 28 13.6266 28 16C28 19.1826 26.7357 22.2349 24.4853 24.4853C22.2348 26.7357 19.1826 28 16 28ZM17.9067 6.78536C17.1475 6.46794 16.3216 6.34301 15.5025 6.42168C14.6834 6.50035 13.8964 6.78018 13.2115 7.2363C12.5266 7.69241 11.965 8.31069 11.5766 9.03616C11.1882 9.76162 10.9851 10.5718 10.9853 11.3947C10.9853 11.4174 10.9853 11.44 10.9853 11.4627C10.9887 12.787 11.518 14.0557 12.4568 14.9898C13.3956 15.9239 14.667 16.4467 15.9913 16.4434C17.3156 16.44 18.5844 15.9107 19.5184 14.9719C20.4525 14.0331 20.9754 12.7617 20.972 11.4374C20.972 11.4227 20.972 11.4094 20.972 11.3947C20.9723 10.4098 20.6815 9.44678 20.1361 8.62668C19.5907 7.80657 18.8151 7.16596 17.9067 6.78536ZM20.4013 15.5854C19.3765 16.5971 18.0473 17.2437 16.6187 17.4254C16.408 17.4458 16.1947 17.4565 15.9787 17.4574C15.7893 17.4574 15.6013 17.448 15.416 17.432C13.9591 17.2653 12.6 16.6151 11.556 15.5854C10.5681 16.0732 9.73642 16.8277 9.15511 17.7637C8.57379 18.6996 8.26604 19.7796 8.26667 20.8814V23.2974C10.3437 25.2828 13.1043 26.394 15.9776 26.4012C18.8509 26.4084 21.6171 25.311 23.704 23.336V20.8827C23.7038 19.7789 23.3941 18.6973 22.81 17.7607C22.226 16.8241 21.3911 16.07 20.4 15.584L20.4013 15.5854Z" fill="black"/>
</g>
<defs>
<clipPath id="clip0_890_2082">
<rect width="32" height="32" fill="white"/>
</clipPath>
</defs>
</svg>
