<svg width="32" height="32" viewBox="0 0 32 32" fill="none" xmlns="http://www.w3.org/2000/svg">
<g id="Functional_UI_-_ic_Trash" clip-path="url(#clip0_703_1929)">
<path id="Box" opacity="0.01" d="M32 0H0V32H32V0Z" fill="white"/>
<path id="Shape" fill-rule="evenodd" clip-rule="evenodd" d="M23.692 5.01869H19.8467V4.23602C19.8488 4.03192 19.8106 3.8294 19.7344 3.64005C19.6582 3.4507 19.5455 3.27822 19.4026 3.13247C19.2597 2.98673 19.0894 2.87057 18.9016 2.79065C18.7138 2.71073 18.5121 2.6686 18.308 2.66669H13.692C13.488 2.6686 13.2864 2.71068 13.0987 2.79052C12.9109 2.87036 12.7408 2.98639 12.5979 3.132C12.455 3.2776 12.3422 3.44993 12.2659 3.63913C12.1897 3.82833 12.1514 4.0307 12.1533 4.23469V5.01735H8.30799C8.00192 5.02032 7.69943 5.08354 7.41779 5.20341C7.13615 5.32328 6.88089 5.49746 6.66657 5.71599C6.45224 5.93452 6.28307 6.19312 6.1687 6.47704C6.05433 6.76095 5.997 7.06462 5.99999 7.37069V8.94002H26V7.37069C26.0057 6.75278 25.7657 6.1579 25.3329 5.71685C24.9001 5.27579 24.3099 5.02467 23.692 5.01869ZM13.692 4.23602H18.308V5.01869H13.692V4.23602ZM7.53866 9.72402V29.3334H24.4613V9.72402H7.53866ZM12.1547 12.8627V26.196C12.1564 26.402 12.0764 26.6002 11.9322 26.7472C11.7879 26.8942 11.5913 26.9779 11.3853 26.98C11.1794 26.9779 10.9827 26.8942 10.8385 26.7472C10.6942 26.6002 10.6142 26.402 10.616 26.196V12.8627C10.6142 12.6568 10.6942 12.4585 10.8385 12.3115C10.9827 12.1645 11.1794 12.0808 11.3853 12.0787C11.5913 12.0808 11.7879 12.1645 11.9322 12.3115C12.0764 12.4585 12.1564 12.6568 12.1547 12.8627ZM16.7707 12.8627V26.196C16.7724 26.402 16.6924 26.6002 16.5482 26.7472C16.4039 26.8942 16.2073 26.9779 16.0013 26.98C15.7954 26.9779 15.5987 26.8942 15.4545 26.7472C15.3102 26.6002 15.2302 26.402 15.232 26.196V12.8627C15.2302 12.6568 15.3102 12.4585 15.4545 12.3115C15.5987 12.1645 15.7954 12.0808 16.0013 12.0787C16.2073 12.0808 16.4039 12.1645 16.5482 12.3115C16.6924 12.4585 16.7724 12.6568 16.7707 12.8627ZM21.3867 12.8627V26.196C21.3884 26.402 21.3084 26.6002 21.1642 26.7472C21.0199 26.8942 20.8233 26.9779 20.6173 26.98C20.4114 26.9779 20.2147 26.8942 20.0705 26.7472C19.9262 26.6002 19.8462 26.402 19.848 26.196V12.8627C19.8462 12.6568 19.9262 12.4585 20.0705 12.3115C20.2147 12.1645 20.4114 12.0808 20.6173 12.0787C20.8233 12.0808 21.0199 12.1645 21.1642 12.3115C21.3084 12.4585 21.3884 12.6568 21.3867 12.8627Z" fill="white"/>
</g>
<defs>
<clipPath id="clip0_703_1929">
<rect width="32" height="32" fill="white"/>
</clipPath>
</defs>
</svg>
