<svg width="80" height="80" viewBox="0 0 80 80" fill="none" xmlns="http://www.w3.org/2000/svg">
<g id="atom_primaryicon_delete_outlined">
<path id="Delete" d="M23.3506 70C21.5728 70 19.8634 69.3 18.6326 68.0333C17.3677 66.8 16.6497 65.1 16.6839 63.3333V20C15.795 20 14.9403 19.6667 14.3249 19.0333C13.6412 18.4 13.3335 17.5667 13.3335 16.6667C13.3335 15.7667 13.6754 14.9333 14.2908 14.3C14.9061 13.6667 15.7608 13.3333 16.6497 13.3333H29.9831C29.9831 12.4333 30.3249 11.6 30.9403 10.9667C31.5899 10.3333 32.4446 10 33.3335 10H46.6668C47.5557 10 48.4104 10.3333 49.06 10.9667C49.7096 11.6 50.0514 12.4667 50.0173 13.3333H63.3506C64.2395 13.3333 65.0942 13.6667 65.7096 14.3C66.3591 14.9333 66.701 15.8 66.6668 16.6667C66.6668 17.5667 66.3249 18.4 65.7096 19.0333C65.0942 19.6667 64.2395 20 63.3506 20V63.3333C63.3506 65.1 62.6668 66.8 61.4019 68.0333C60.1711 69.3 58.4617 70 56.6839 70H23.3506ZM23.3506 20V63.3333H56.6839V20H23.3506ZM30.0173 53.3333C30.0173 54.2333 30.3249 55.0667 30.9745 55.7C31.5899 56.3333 32.4446 56.6667 33.3335 56.6667C34.2224 56.6667 35.0771 56.3333 35.7267 55.7C36.3762 55.0667 36.7181 54.2 36.6839 53.3333V30C36.6839 29.1 36.3762 28.2667 35.7267 27.6333C35.1113 27 34.2566 26.6667 33.3335 26.6667C32.4446 26.6667 31.5899 27 30.9745 27.6333C30.3249 28.2667 29.9831 29.1333 30.0173 30V53.3333ZM43.3506 53.3333C43.3506 54.2333 43.6583 55.0667 44.3079 55.7C44.9232 56.3333 45.7779 56.6667 46.6668 56.6667C47.5557 56.6667 48.4104 56.3333 49.06 55.7C49.7096 55.0667 50.0514 54.2 50.0173 53.3333V30C50.0173 29.1 49.7096 28.2667 49.06 27.6333C48.4446 27 47.5899 26.6667 46.6668 26.6667C45.7779 26.6667 44.9232 27 44.3079 27.6333C43.6583 28.2667 43.3164 29.1333 43.3506 30V53.3333ZM23.3506 20V63.3333V20Z" fill="black"/>
</g>
</svg>
