<svg width="180" height="180" viewBox="0 0 180 180" fill="none" xmlns="http://www.w3.org/2000/svg">
<g id="A.functional 1" clip-path="url(#clip0_716_20714)">
<g id="&#206;&#169;Illustrations/error-functional">
<g id="Clip path group">
<g id="&#206;&#169;Illustrations/error-functional_2">
<g id="illustration">
<g id="hand">
<g id="Group 17">
<path id="Path" d="M65.5999 123.417C65.8616 121.948 66.696 120.644 67.9196 119.79C69.1432 118.937 70.6557 118.604 72.1244 118.866C73.5931 119.127 74.8977 119.962 75.7512 121.185C76.6047 122.409 76.9372 123.922 76.6756 125.39C74.7657 135.218 76.4942 145.406 81.5389 154.054C82.2631 155.341 82.4519 156.862 82.0648 158.287C81.6776 159.712 80.7454 160.928 79.4696 161.672C78.1937 162.415 76.6765 162.628 75.2455 162.262C73.8145 161.897 72.5846 160.984 71.8212 159.72C65.4264 148.769 63.2163 135.872 65.5999 123.417Z" fill="#4BB4E6"/>
<path id="Combined Shape" d="M140.524 179.46H92.2176L88.6389 170.09L88.7874 170.223L88.5838 169.947L88.6389 170.09C86.1911 168.199 83.8992 166.115 81.7854 163.857C77.1371 158.519 73.7672 152.191 71.932 145.354C70.0968 138.517 69.8447 131.352 71.1947 124.404L73.7676 131.154L121.376 129.904L128.689 161.268L135.439 171.155L140.893 179.46H140.524Z" fill="white"/>
<path id="Path_2" d="M69.533 124.107L72.8551 124.698C70.0269 140.561 75.0511 153.974 83.0353 162.723L83.2074 162.91L83.5753 163.296L83.7699 163.494L84.3886 164.107L84.824 164.527L85.499 165.164L86.1943 165.8L87.7951 167.229L90.3759 169.479L90.629 169.704L90.7303 169.804L90.7595 169.837C91.1171 170.264 91.3887 170.757 91.5594 171.288L92.1433 173.217L93.8375 178.984L90.5964 179.927L88.838 173.922L88.3453 172.298C88.3003 172.176 88.2328 172.064 88.1461 171.968L86.8029 170.832L85.9209 170.074L84.4876 168.811L83.8351 168.221L83.3964 167.819C82.3715 166.871 81.3545 165.884 80.5456 164.996C76.732 160.705 73.7567 155.738 71.774 150.351C68.744 142.217 67.9257 133.426 69.4025 124.873L69.533 124.107Z" fill="black"/>
</g>
<g id="Group 5">
<path id="Fill 2" d="M44.495 83.7911C44.495 83.7911 40.1075 84.9296 37.8833 85.6879C35.6592 86.4461 35.2891 87.7084 35.1608 91.6043C35.0326 95.5001 35.3566 102.423 35.4803 103.445C35.5 105.004 35.8715 106.538 36.5671 107.933C37.1296 108.809 42.6331 109.423 43.4633 105.272C44.2859 102.076 45.5322 99.0046 47.1691 96.1391" fill="white"/>
<path id="Path_3" d="M44.0706 82.1577L44.9223 85.4202L44.0223 85.6587L42.3483 86.1087L41.0343 86.4788L40.0218 86.7758L39.1555 87.0413L38.6605 87.201L38.323 87.3135L38.1149 87.3957L37.9281 87.4834C37.6699 87.6252 37.4529 87.8316 37.2985 88.0824C37.1441 88.3333 37.0575 88.62 37.0473 88.9144L37.0011 89.2452C36.9854 89.3622 36.9711 89.487 36.9584 89.6198L36.9235 90.045C36.9183 90.12 36.913 90.1977 36.9078 90.2779L36.8808 90.7864L36.847 91.6639L36.8313 92.3288C36.8313 92.4465 36.8313 92.5677 36.8313 92.6922V93.4729L36.838 94.7475L36.8673 96.5588L36.9123 98.3205L36.9674 100.158L37.0158 101.242L37.0664 102.162L37.1046 102.717L37.1541 103.239L37.1688 103.364L37.2813 104.501L37.3308 104.937L37.3791 105.267L37.4151 105.46L37.4826 105.751L37.5096 105.858C37.5743 106.117 37.6604 106.37 37.7673 106.614L37.837 106.758L37.9495 106.788L38.0755 106.815C38.5906 106.907 39.1174 106.91 39.6336 106.826C40.1538 106.8 40.6504 106.601 41.0438 106.26C41.4371 105.918 41.7044 105.455 41.8026 104.943C41.9388 104.276 42.1085 103.615 42.3111 102.965C42.6911 101.755 43.1391 100.567 43.6533 99.4084C44.1033 98.3892 44.5758 97.4059 45.0528 96.4913L45.4083 95.8242L45.7008 95.2977L48.6258 96.9852L48.394 97.4014L48.0475 98.0528C47.6043 98.9033 47.1599 99.819 46.747 100.762C46.2849 101.803 45.8819 102.87 45.5399 103.957C45.4049 104.395 45.2924 104.813 45.2024 105.212L45.118 105.604C44.1426 110.481 36.9528 111.668 35.146 108.844C34.7334 108.181 34.4296 107.457 34.246 106.698C34.1178 106.194 34.0224 105.681 33.9603 105.164L33.9119 104.741L33.8061 103.654L33.7645 103.244L33.7218 102.688L33.6509 101.492L33.5744 99.7223L33.5091 97.7333L33.4743 96.2325L33.4563 95.0254L33.4473 93.8689V92.7957L33.4585 92.1409L33.4731 91.548L33.4855 91.1982L33.5181 90.5322C33.5256 90.4242 33.5328 90.3188 33.5395 90.216L33.589 89.6142C33.8973 86.3202 34.8108 84.9533 37.3375 84.0904L38.116 83.835L39.3771 83.4514L40.0949 83.2433L40.7598 83.0577L42.13 82.6752L44.0706 82.1577Z" fill="black"/>
</g>
<g id="Group 11">
<path id="Fill 8" d="M47.3163 67.6744C47.3163 67.6744 42.2076 68.9985 39.6224 69.8816C37.0371 70.7648 36.6006 72.2329 36.4521 76.7678C36.4539 81.3614 36.7025 85.9517 37.1969 90.5186C37.3454 91.7078 37.4939 94.3841 37.8651 96.3911C38.2364 98.3981 45.1495 97.506 46.1159 92.6786C47.0727 88.9593 48.5225 85.3846 50.4269 82.0496" fill="white"/>
<path id="Path_4" d="M46.8978 66.0409L47.7449 69.3034L46.3286 69.6791C45.5298 69.894 44.7322 70.1123 43.9661 70.3283L42.7972 70.6658L42.0254 70.8908L41.0129 71.2013L40.7103 71.3003L40.1714 71.4791L39.9206 71.5703C39.5127 71.6941 39.1515 71.9376 38.8837 72.2692C38.6159 72.6008 38.4539 73.0051 38.4187 73.4299L38.3568 73.7674L38.3039 74.151L38.2589 74.5808C38.2522 74.6558 38.2458 74.7334 38.2398 74.8136L38.1903 75.5888L38.1509 76.4888C38.1472 76.596 38.1434 76.7059 38.1397 76.8184C38.1228 77.301 38.1228 77.8534 38.1228 78.4474L38.1374 79.38L38.1656 80.3711L38.2049 81.405L38.2544 82.4659L38.3118 83.5369L38.3771 84.6034L38.4479 85.6485L38.5604 87.1425L38.6381 88.0661L38.7506 89.3036L38.8271 90.0045L38.8721 90.3859L39.2309 94.0658L39.3232 94.8285L39.4031 95.4011L39.4458 95.6745C39.9701 95.7408 40.5024 95.7026 41.0118 95.562L41.2694 95.49C42.0389 95.3089 42.7438 94.9195 43.3067 94.3645C43.8697 93.8095 44.269 93.1103 44.4611 92.3434C44.6177 91.5754 44.8129 90.8158 45.0461 90.0675C45.4847 88.668 46.0023 87.2944 46.5963 85.9534C47.0092 85.0095 47.4457 84.0915 47.8856 83.2208L48.3592 82.305L48.9656 81.198L51.8906 82.8855L51.7094 83.2073L51.3438 83.8823L51.2111 84.1365C50.6924 85.131 50.1738 86.202 49.6901 87.3068C49.1478 88.5286 48.6749 89.7801 48.2737 91.0553C48.0739 91.6948 47.9065 92.344 47.7719 93.0004C47.4659 94.3662 46.7896 95.6214 45.8172 96.6281C44.8448 97.6349 43.6138 98.3543 42.2594 98.7075C39.4897 99.5501 36.6457 99.0608 36.2069 96.6938C36.1147 96.1988 36.0337 95.6531 35.9572 95.0479L35.8728 94.2863L35.5218 90.7279L35.4824 90.4039L35.4026 89.6659L35.2799 88.3834L35.1978 87.4271L35.1191 86.4146L35.0437 85.3515L34.9728 84.2524L34.8839 82.5919L34.8333 81.4939L34.7928 80.4229L34.7647 79.3935L34.7478 78.4159C34.7478 77.7904 34.7478 77.2144 34.7636 76.707L34.7917 75.9915L34.8288 75.3165L34.8761 74.6831C35.2113 70.803 36.2103 69.264 39.0768 68.2853L39.6584 68.0929L40.3166 67.8848L41.0478 67.6598L41.8488 67.4235L42.2729 67.3009C42.7781 67.158 43.2978 67.0106 43.8344 66.8633L45.4477 66.4234L46.8978 66.0409Z" fill="black"/>
<path id="Fill 30" d="M43.5914 84.6079C43.5914 84.6079 44.0043 103.452 41.7273 105.786C41.7273 105.786 46.2937 104.902 45.5995 94.986C45.4056 90.6055 44.8631 86.2473 43.9773 81.9529L43.5914 84.6079Z" fill="#FF7900"/>
</g>
<g id="Group 25">
<path id="Path_5" d="M43.9368 44.2226C45.3548 43.8282 46.8709 44.0052 48.1599 44.7157C49.4488 45.4262 50.408 46.6136 50.8315 48.0232C51.255 49.4328 51.1092 50.9522 50.4254 52.2555C49.7415 53.5588 48.574 54.5421 47.1735 54.9945L47.142 55.0024L47.0475 55.0553L46.9788 55.0947C46.6403 55.2982 46.3125 55.5189 45.9967 55.7562C45.2946 56.2758 44.6261 56.8394 43.9953 57.4437C43.6556 57.963 43.4524 58.5597 43.4047 59.1784L43.3383 59.6104L43.2787 60.0795L43.2281 60.5847L43.1853 61.1224L43.1527 61.6917C43.1482 61.7892 43.1437 61.8874 43.1392 61.9864L43.1212 62.5973C43.1212 62.7015 43.1212 62.8065 43.1212 62.9123V63.5603C43.1212 63.6705 43.1212 63.783 43.1212 63.8978L43.1347 64.5728C43.1347 64.6875 43.1385 64.8034 43.146 64.9204L43.1775 65.628C43.1835 65.7473 43.1902 65.8673 43.1977 65.988L43.2483 66.717C43.2671 66.9623 43.2881 67.2094 43.3113 67.4584L43.3878 68.2088C43.4156 68.4608 43.446 68.7135 43.479 68.967L43.5847 69.7309C43.6035 69.8584 43.623 69.9859 43.6432 70.1134C43.8746 71.5881 43.5107 73.0943 42.6315 74.3007C42.1962 74.898 41.6475 75.4037 41.0168 75.789C40.386 76.1743 39.6855 76.4316 38.9553 76.5462C37.4807 76.7775 35.9745 76.4136 34.7681 75.5345C33.5617 74.6553 32.754 73.333 32.5226 71.8583L32.3696 70.8267L32.2335 69.8029L32.1153 68.7904C32.0598 68.2842 32.0118 67.7824 31.9713 67.2852L31.9005 66.2929C31.4505 59.0929 32.5867 52.8795 36.1057 49.4179C38.394 47.1679 41.4585 44.9078 43.9368 44.2226Z" fill="#FF8AD4"/>
<path id="Fill 22" d="M54.2508 50.5181C51.5137 49.2482 48.4279 48.9402 45.4938 49.644C44.0065 50.0558 41.3549 52.2068 40.1095 53.433C37.1643 56.3288 37.1204 64.5064 38.1385 70.9853C39.1567 77.4641 39.4345 79.776 41.3774 79.9661C43.3203 80.1563 47.3399 78.2854 48.5774 74.8868C49.7564 71.6479 48.5099 59.4068 48.5099 59.4068" fill="white"/>
<path id="Path_6" d="M45.0449 48.015C48.2007 47.2307 51.5268 47.5047 54.5118 48.7947L54.9213 48.9657L53.5825 52.065C51.1989 50.9458 48.507 50.6651 45.9438 51.2685C45.5091 51.4225 45.0964 51.6328 44.7164 51.894L44.2743 52.1865C43.8243 52.4982 43.3304 52.8615 42.8512 53.2519L42.382 53.64C41.9928 53.9708 41.6204 54.3072 41.2919 54.6312C39.7259 56.1758 39.034 60.39 39.2658 65.4525L39.313 66.303C39.3498 66.8753 39.3982 67.4554 39.4582 68.0434L39.5572 68.9299C39.5932 69.2299 39.6307 69.528 39.6697 69.8243L39.8024 70.7243L40.4594 74.8182L40.5922 75.5235L40.7047 76.0669L40.8172 76.5462L40.9218 76.9647C40.9563 77.0944 40.9908 77.2144 41.0253 77.3247L41.1277 77.6295C41.1719 77.7527 41.223 77.8732 41.2807 77.9907L41.401 78.2055C41.4269 78.246 41.4438 78.2618 41.4708 78.2708L41.5428 78.2809C43.1639 78.435 46.1744 76.572 47.0002 74.304C47.0641 74.1187 47.1137 73.9288 47.1487 73.7359L47.2105 73.3692L47.2634 72.9507C47.2799 72.8007 47.2949 72.6443 47.3084 72.4815L47.3444 71.9652L47.3725 71.4027L47.3917 70.7963C47.3917 70.692 47.3939 70.5859 47.3984 70.4779L47.4052 69.8097V69.1032L47.3939 68.3607L47.3737 67.5833C47.3377 66.4043 47.2747 65.1589 47.1914 63.8843L47.0789 62.415L47.0013 61.4318L46.8337 59.5744L50.1918 59.2369L50.284 60.2112L50.4055 61.6534L50.4832 62.6862C50.6024 64.3377 50.6913 65.9599 50.7385 67.4843L50.7622 68.4045L50.7745 69.2798V70.11L50.7633 70.8975L50.7385 71.6355C50.728 71.874 50.7153 72.1043 50.7003 72.3263L50.6485 72.9709C50.5901 73.8201 50.4276 74.6588 50.1648 75.4684C48.808 79.1933 44.3553 81.9495 41.2165 81.6559C39.0993 81.4545 38.161 80.1214 37.4782 77.1244L37.3443 76.5023L37.1294 75.3773L36.5669 71.9089L36.4657 71.2643C36.3412 70.4415 36.2343 69.6323 36.145 68.8365L36.046 67.887C35.3845 60.9638 36.2035 54.9057 38.926 52.2293C40.7587 50.4259 43.4047 48.4707 45.0449 48.015Z" fill="black"/>
<path id="Fill 28" d="M45.0259 56.4694C45.0259 56.4694 45.5311 75.3132 42.7478 77.6475C42.7478 77.6475 48.3312 76.7633 47.4818 66.8475C46.6853 57.582 45.4951 53.8133 45.4951 53.8133L45.0259 56.4694Z" fill="#FF7900"/>
</g>
<g id="Group 21">
<path id="Fill 18" d="M58.1288 30.9679C58.1288 30.9679 52.0178 20.5999 51.1448 19.5075C50.2718 18.4151 47.5425 15.579 46.233 14.157C44.9235 12.735 36.8269 17.9617 42.174 29.2027C45.6013 36.3053 49.5787 43.1289 54.0698 49.6114" fill="white"/>
<path id="Path_7" d="M40.2593 16.0661C42.1268 12.9533 45.6481 11.0441 47.4728 13.0163L50.7218 16.4891L51.4699 17.3059L51.9199 17.8065L52.3756 18.3409L52.5106 18.5141L52.6939 18.7673L52.9302 19.1171L53.5602 20.0993L54.3972 21.4493L55.8271 23.805L57.0646 25.8761L59.5778 30.1073L56.6731 31.8251L54.6481 28.4085L52.6073 25.0065L51.1099 22.554L50.2741 21.2243L49.9444 20.727L49.8589 20.6066L49.7464 20.4694L49.4551 20.1319L48.7576 19.3523L47.7856 18.2891L45.3522 15.6926L45.2307 15.7478L45.0979 15.8153C44.2895 16.2988 43.6198 16.9832 43.1539 17.802C41.6138 20.3693 41.5654 23.9895 43.6973 28.4771C44.4826 30.1271 45.3192 31.788 46.2072 33.4598C48.2322 37.2713 50.3989 40.9388 52.5679 44.325L53.2047 45.3105L53.8111 46.2341L54.3859 47.0948L54.8213 47.7349L55.4434 48.6349L52.6973 50.5969L52.3407 50.0873L51.5903 48.9881L51.0008 48.1061L50.3787 47.16L49.7273 46.1475C47.5122 42.6881 45.2971 38.9475 43.2282 35.0438C42.3207 33.333 41.4619 31.6279 40.6519 29.9284C38.0498 24.4609 38.1106 19.6391 40.2593 16.0661Z" fill="black"/>
<path id="Fill 26" d="M56.0791 39.8599L42.5037 19.0474C42.5037 19.0474 41.0659 23.3224 44.7087 30.4177C48.3514 37.5131 54.2509 47.1037 54.2509 47.1037L56.0791 39.8599Z" fill="#FF7900"/>
</g>
</g>
<g id="phone">
<path id="Fill 33" d="M66.5843 0.534355L122.761 5.2211C123.497 5.2849 124.214 5.49338 124.869 5.83459C125.525 6.17579 126.107 6.64301 126.581 7.20947C127.056 7.77592 127.414 8.43048 127.635 9.13561C127.856 9.84074 127.936 10.5826 127.87 11.3186L116.668 135.838C116.601 136.587 116.385 137.315 116.031 137.979C115.677 138.642 115.194 139.228 114.61 139.702C114.025 140.175 113.352 140.526 112.629 140.734C111.907 140.942 111.15 141.003 110.403 140.913L41.3843 132.588C40.6086 132.494 39.8611 132.24 39.1893 131.841C38.5176 131.442 37.9365 130.908 37.4831 130.271C37.0297 129.635 36.7141 128.911 36.5563 128.146C36.3986 127.381 36.4022 126.592 36.567 125.828L60.6071 4.94435C60.8954 3.60745 61.6618 2.42173 62.7623 1.60975C63.8628 0.797781 65.2218 0.415389 66.5843 0.534355Z" fill="black"/>
<path id="Combined Shape_2" d="M107.905 136.335C107.778 136.335 107.649 136.33 107.521 136.317L44.3407 129.178C43.9054 129.11 43.4889 128.953 43.1172 128.716C42.7455 128.48 42.4267 128.169 42.1807 127.803C41.8816 127.387 41.6695 126.914 41.5568 126.414C41.4441 125.913 41.4333 125.395 41.5248 124.891L64.324 6.45412C64.4715 5.67109 64.8262 4.94191 65.3512 4.34249C65.618 4.05589 65.9426 3.82909 66.3034 3.67706C66.6643 3.52503 67.0533 3.45122 67.4448 3.46049C67.574 3.4607 67.7032 3.46746 67.8318 3.48074L75.6393 4.22437C75.5875 4.21537 75.5268 4.20749 75.4615 4.20074L115.049 7.97062H114.927L120.923 8.54212C121.347 8.56418 121.762 8.67663 122.14 8.87195C122.518 9.06728 122.849 9.34097 123.113 9.67473C123.376 10.0085 123.565 10.3946 123.667 10.8073C123.769 11.22 123.782 11.6498 123.705 12.0679L111.528 133.285C111.411 134.108 111.003 134.861 110.379 135.41C109.699 136.015 108.817 136.345 107.905 136.335ZM75.6438 4.22437C76.6158 4.39312 77.0635 5.12437 77.5833 5.98049C77.9694 6.81639 78.5794 7.52907 79.3456 8.03958C80.1119 8.5501 81.0046 8.83851 81.9247 8.87287C86.698 9.31049 103.332 10.7944 106.417 11.0644C106.563 11.0767 106.711 11.0835 106.855 11.0835C108.297 10.9837 109.673 10.4381 110.792 9.52199C111.906 8.60802 113.277 8.06242 114.714 7.96049C114.785 7.96049 114.856 7.96049 114.925 7.96049L75.6438 4.22437Z" fill="white"/>
<path id="Fill 45" d="M95.8646 6.48222C95.8646 6.72364 95.793 6.95963 95.6589 7.16036C95.5248 7.3611 95.3341 7.51755 95.1111 7.60993C94.888 7.70232 94.6426 7.72649 94.4058 7.67939C94.1691 7.63229 93.9516 7.51604 93.7809 7.34533C93.6101 7.17463 93.4939 6.95713 93.4468 6.72035C93.3997 6.48358 93.4239 6.23815 93.5163 6.01511C93.6086 5.79207 93.7651 5.60143 93.9658 5.46731C94.1666 5.33319 94.4025 5.2616 94.644 5.2616C94.9677 5.2616 95.2782 5.3902 95.5071 5.61911C95.736 5.84802 95.8646 6.15849 95.8646 6.48222Z" fill="white"/>
<path id="Stroke 43" d="M75.9184 130.468C74.7836 130.468 73.6744 130.132 72.7308 129.502C71.7873 128.871 71.0519 127.975 70.6177 126.927C70.1834 125.878 70.0698 124.725 70.2912 123.612C70.5125 122.499 71.059 121.476 71.8614 120.674C72.6638 119.872 73.6861 119.325 74.7991 119.104C75.912 118.882 77.0657 118.996 78.1141 119.43C79.1624 119.864 80.0585 120.6 80.689 121.543C81.3194 122.487 81.6559 123.596 81.6559 124.731C81.6559 126.253 81.0514 127.712 79.9754 128.788C78.8994 129.864 77.4401 130.468 75.9184 130.468ZM75.9184 120.118C75.0061 120.118 74.1144 120.389 73.3558 120.896C72.5973 121.403 72.0061 122.123 71.657 122.966C71.3079 123.809 71.2166 124.736 71.3945 125.631C71.5725 126.526 72.0118 127.347 72.6569 127.993C73.302 128.638 74.1238 129.077 75.0186 129.255C75.9133 129.433 76.8407 129.341 77.6835 128.992C78.5264 128.643 79.2467 128.052 79.7536 127.294C80.2604 126.535 80.5309 125.643 80.5309 124.731C80.5309 124.125 80.4116 123.525 80.1798 122.966C79.948 122.406 79.6083 121.898 79.1799 121.469C78.7516 121.041 78.2432 120.701 77.6835 120.47C77.1239 120.238 76.5241 120.118 75.9184 120.118Z" fill="black"/>
</g>
<g id="finger">
<path id="Path_8" d="M136.463 71.5421C138.082 71.276 139.74 71.6641 141.074 72.6208C142.407 73.5776 143.305 75.0248 143.571 76.644L149.264 111.374L149.308 111.599C150.062 115.397 150.027 119.31 149.207 123.094L148.821 124.855L143.233 152.724L142.613 155.663L142.445 156.396L142.305 156.97L142.119 157.758L141.963 158.479C141.868 158.937 141.793 159.349 141.738 159.716L141.676 160.166L141.643 160.487L141.627 160.731L141.68 160.965C141.973 162.404 141.744 163.9 141.034 165.186C140.325 166.472 139.181 167.464 137.808 167.984L137.567 168.069C136.01 168.588 134.311 168.467 132.844 167.733C131.376 166.998 130.26 165.711 129.742 164.154C128.991 161.909 129.085 159.608 129.759 156.33L129.948 155.452L130.163 154.527L130.515 153.064L131.36 149.014L133.675 137.47L136.456 123.546L136.889 121.464L137.023 120.872C137.536 118.759 137.61 116.563 137.239 114.42L136.866 112.332L135.807 105.945L131.36 78.651C131.228 77.8491 131.255 77.0292 131.44 76.238C131.626 75.4468 131.965 74.6998 132.439 74.0396C132.913 73.3795 133.512 72.8192 134.202 72.3907C134.893 71.9621 135.661 71.6738 136.463 71.5421Z" fill="#085EBD"/>
<path id="Fill 56" d="M140.526 179.459C140.526 179.459 136.125 163.596 135.657 162.197C135.189 160.797 135.73 157.922 136.445 155.05C137.159 152.178 142.46 124.969 143.089 122.276C143.836 119.154 143.897 115.907 143.269 112.759C142.554 108.987 135.891 67.1096 135.128 63.6784C134.366 60.2471 124.553 61.1944 123.365 69.7106C122.177 78.2269 121.237 95.8466 120.765 99.2767C120.294 102.707 119.521 103.084 116.508 107.201C113.775 110.933 105.101 119.936 99.053 147.285" fill="white"/>
<path id="Combined Shape_3" d="M134.755 165.106L134.123 162.934L134.058 162.73C133.679 161.093 133.7 159.388 134.121 157.761L134.261 157.045C134.286 156.923 134.312 156.798 134.339 156.672L134.512 155.892L134.709 155.069L134.888 154.333L135.411 151.887L136.873 144.677L141.102 123.516L141.453 121.893C142.102 119.197 142.194 116.397 141.723 113.664L141.126 110.265L134.732 71.1922L133.945 66.5539L133.602 64.6481L133.481 64.0451C133.452 63.9169 133.243 63.7425 132.726 63.6142C131.788 63.4307 130.818 63.5021 129.917 63.8212C128.595 64.2549 127.429 65.0654 126.561 66.153C125.693 67.2406 125.162 68.5581 125.033 69.9435L124.876 71.1292L124.72 72.4399L124.615 73.3826L124.458 74.9036L124.302 76.5562L124.147 78.2617L123.967 80.3576L122.73 96.3259L122.492 98.9854L122.435 99.5062C122.303 100.896 121.899 102.246 121.247 103.481C121.064 103.818 120.862 104.136 120.608 104.508L120.27 104.979L118.51 107.329L117.707 108.412L115.936 110.709C114.993 111.946 114.156 113.12 113.292 114.45C110.652 118.584 108.436 122.974 106.676 127.552C104.283 133.747 102.365 140.115 100.938 146.601L100.703 147.649L97.4048 146.92C98.9019 139.9 100.952 133.009 103.537 126.312C105.38 121.524 107.7 116.933 110.463 112.61C111.224 111.439 111.966 110.382 112.764 109.309L113.319 108.575L114.985 106.417L115.144 106.204L115.695 105.46L117.176 103.499L117.486 103.078L117.744 102.716C117.822 102.603 117.893 102.499 117.959 102.4L118.139 102.117L118.29 101.854C118.699 101.074 118.956 100.223 119.048 99.3476L119.1 98.9752L119.135 98.6377L119.282 97.0166L119.82 90.2576L120.422 82.305L120.632 79.7445L120.889 76.797L121.093 74.6707L121.242 73.2082L121.343 72.2947L121.443 71.4296L121.543 70.6129L121.643 69.8434C121.659 69.7185 121.677 69.5959 121.692 69.4755C121.909 67.4617 122.703 65.5534 123.979 63.9806C125.255 62.4077 126.959 61.2374 128.885 60.6105C132.344 59.4911 135.943 60.3394 136.722 63.1024L136.806 63.4522L136.945 64.1666L137.276 66.0116L138.626 74.0644L144.655 110.913L144.834 111.925L144.932 112.439C145.57 115.631 145.546 118.921 144.861 122.103L144.578 123.374L143.728 127.552L139.646 147.994L138.346 154.32L138.087 155.459L137.997 155.824L137.831 156.527C137.805 156.639 137.779 156.752 137.754 156.864L137.615 157.511L137.494 158.12L137.392 158.682L137.309 159.21C137.295 159.294 137.284 159.376 137.273 159.457L137.217 159.921C137.136 160.465 137.141 161.018 137.23 161.56L137.513 162.496L138.723 166.728L141.058 175.07L142.153 179.008L138.9 179.908L134.755 165.106ZM118.186 179.46L113.942 162.327C128.816 155.869 135.078 131.047 139.547 121.942C139.299 132.451 130.604 160.839 130.604 160.839L135.078 179.459L118.186 179.46Z" fill="black"/>
<path id="Fill 60" d="M125.812 69.2066C125.812 69.2066 124.201 96.1447 123.917 99.7594C123.632 103.374 122.375 106.332 118.464 109.962C114.552 113.592 107.757 125.417 104.032 140.314C104.032 140.314 109.27 124.639 121.377 115.692C130.961 108.604 126.609 84.4414 127.002 72.0551C127.086 69.363 125.812 69.2066 125.812 69.2066Z" fill="#FF7900"/>
</g>
<g id="icon">
<path id="Fill 47" d="M90.7075 52.4565C89.5825 49.869 87.1739 49.5068 85.3447 51.6544L70.111 69.534C68.2818 71.6816 69.0771 73.7032 71.8795 74.0272L96.4338 76.8667C99.2361 77.1907 100.612 75.3379 99.4915 72.7492L90.7075 52.4565Z" fill="#FFCC00"/>
<path id="Combined Shape_4" d="M82.6907 72.3791L83.3319 68.8511L86.8104 69.1886L86.1422 72.7953L82.6907 72.3791ZM83.5322 67.1895L84.8923 58.3267L89.1977 58.7193L87.1243 67.4943L83.5322 67.1895Z" fill="black"/>
</g>
</g>
</g>
</g>
</g>
</g>
<defs>
<clipPath id="clip0_716_20714">
<rect width="180" height="180" fill="white"/>
</clipPath>
</defs>
</svg>
