<svg width="28" height="28" viewBox="0 0 28 28" fill="none" xmlns="http://www.w3.org/2000/svg">
<g id="Group">
<path id="Vector" d="M27.3333 14C27.3177 10.4583 25.9427 7.13021 23.4583 4.625C20.9531 2.10417 17.6093 0.71875 14.052 0.71875C11.4687 0.71875 8.9635 1.45833 6.80204 2.85937C5.15621 3.92708 3.776 5.32812 2.74996 6.97396V4.15625C2.74996 3.58333 2.28121 3.11458 1.70829 3.11458C1.13538 3.11458 0.666626 3.58333 0.666626 4.15625V7.16146C0.661418 8.01042 0.989543 8.80729 1.57808 9.40104C2.15621 9.97917 2.92704 10.2969 3.75517 10.2969C3.76038 10.2969 3.76038 10.2969 3.76558 10.2969L6.81246 10.3021C7.38538 10.3021 7.85413 9.83854 7.85413 9.26042C7.85413 8.6875 7.39058 8.21875 6.81246 8.21875L4.43225 8.21354C6.45829 4.89062 10.1145 2.80208 14.052 2.80208C20.2187 2.80208 25.2343 7.83333 25.25 14.026C25.2447 16.1719 24.6354 18.2552 23.4843 20.0521C23.1718 20.5365 23.3177 21.1823 23.802 21.4896C23.9739 21.599 24.1718 21.6562 24.3645 21.6562C24.7083 21.6562 25.0468 21.4844 25.2447 21.1771C26.6041 19.0521 27.3281 16.5885 27.3385 14.0521V14H27.3333Z" fill="white"/>
<path id="Vector_2" d="M20.4844 23.2292C18.5938 24.5521 16.3698 25.25 14.0521 25.25C14.0417 25.25 14.0365 25.25 14.0261 25.25C14.0156 25.25 14.0104 25.25 14 25.25C13.8438 25.25 13.6823 25.2448 13.5208 25.2396C12.9479 25.2188 12.4583 25.6615 12.4375 26.2396C12.4115 26.8125 12.8594 27.3021 13.4375 27.3229C13.625 27.3281 13.8125 27.3333 14 27.3333C14.0104 27.3333 14.0156 27.3333 14.0261 27.3333C14.0365 27.3333 14.0417 27.3333 14.0521 27.3333C16.7969 27.3333 19.4375 26.5052 21.6823 24.9375C22.1563 24.6094 22.2708 23.9583 21.9375 23.4896C21.6094 23.0156 20.9583 22.9011 20.4844 23.2292Z" fill="white"/>
<path id="Vector_3" d="M5.73958 21.6407C5.34896 21.2188 4.6875 21.1927 4.26562 21.5834C3.84375 21.974 3.81771 22.6354 4.20833 23.0573C4.44271 23.3125 4.69271 23.5573 4.94271 23.7917C5.14062 23.9792 5.39583 24.0677 5.65104 24.0677C5.93229 24.0677 6.20833 23.9532 6.41666 23.7344C6.80729 23.3125 6.78125 22.6511 6.35937 22.2604C6.14583 22.0625 5.9375 21.8542 5.73958 21.6407Z" fill="white"/>
<path id="Vector_4" d="M3.44791 17.9167C3.25 17.375 2.64583 17.1042 2.10937 17.3021C1.5677 17.5 1.29687 18.1042 1.49479 18.6406C1.61458 18.9636 1.75 19.2865 1.89583 19.6042C2.07291 19.9844 2.44791 20.2084 2.84375 20.2084C2.98958 20.2084 3.14062 20.1771 3.28125 20.1094C3.80208 19.8698 4.03125 19.25 3.78645 18.724C3.66666 18.4636 3.55208 18.1875 3.44791 17.9167Z" fill="white"/>
<path id="Vector_5" d="M10.0886 24.5521C9.81252 24.4479 9.54169 24.3385 9.27606 24.2135C8.75523 23.9687 8.13544 24.1979 7.89065 24.7187C7.65106 25.2396 7.87502 25.8594 8.39586 26.1041C8.70836 26.25 9.03648 26.3854 9.3594 26.5052C9.47919 26.5521 9.59898 26.5729 9.72398 26.5729C10.1459 26.5729 10.5469 26.3125 10.7031 25.8958C10.9011 25.3489 10.625 24.75 10.0886 24.5521Z" fill="white"/>
<path id="Vector_6" d="M1.76043 15.5625C2.33334 15.5364 2.78126 15.0521 2.75522 14.4791C2.75001 14.3229 2.7448 14.1614 2.7448 14C2.7448 13.4271 2.27605 12.9583 1.70314 12.9583C1.13022 12.9583 0.661469 13.4271 0.661469 14C0.661469 14.1875 0.666677 14.375 0.671885 14.5625C0.692719 15.125 1.15626 15.5625 1.71355 15.5625C1.73439 15.5625 1.75001 15.5625 1.76043 15.5625Z" fill="white"/>
<path id="Vector_7" d="M7.84375 18.1354C7.72396 18.7031 7.86458 19.2916 8.23437 19.7448C8.60417 20.1979 9.15104 20.4583 9.73958 20.4583H18.3698C18.9583 20.4583 19.5052 20.1979 19.875 19.7448C20.2396 19.2916 20.3854 18.7083 20.2656 18.1354C19.974 16.75 19.2031 15.4896 18.0937 14.5833C17.7656 14.3177 17.4115 14.0833 17.0417 13.8906C17.651 13.1927 18.0208 12.2864 18.0208 11.2916C18.0208 9.10935 16.2448 7.33331 14.0625 7.33331C11.8802 7.33331 10.1042 9.10935 10.1042 11.2916C10.1042 12.2864 10.474 13.1979 11.0833 13.8906C10.7135 14.0833 10.3594 14.3177 10.0312 14.5833C8.90625 15.4896 8.13542 16.75 7.84375 18.1354ZM14.0521 9.41665C15.0885 9.41665 15.9271 10.2552 15.9271 11.2916C15.9271 12.3281 15.0885 13.1666 14.0521 13.1666C13.0156 13.1666 12.1771 12.3281 12.1771 11.2916C12.1771 10.2552 13.0156 9.41665 14.0521 9.41665ZM14.0156 15.25H14.0885C16.0156 15.25 17.7031 16.5521 18.1771 18.375H9.92708C10.401 16.5521 12.0937 15.25 14.0156 15.25Z" fill="white"/>
</g>
</svg>
