<svg width="180" height="181" viewBox="0 0 180 181" fill="none" xmlns="http://www.w3.org/2000/svg">
<g id="Win">
<g id="Groupe 5385">
<g id="&#206;&#169;illustrations/Omnis/no-results/technical">
<path id="Fill 1" d="M73.1709 131.452L86.8891 166.741L90.9728 172.291L93.2472 180H142.052L136.582 171.646L129.811 161.7L122.483 130.152L73.1709 131.452Z" fill="white"/>
<g id="Group 32">
<g id="Group 5">
<path id="Fill 2" d="M45.3886 83.7705C45.3886 83.7705 40.9863 84.915 38.7598 85.6785C36.5332 86.442 36.1564 87.711 36.0293 91.629C35.9022 95.547 36.2222 102.512 36.3493 103.539C36.3693 105.107 36.7419 106.65 37.4394 108.053C38.0016 108.935 43.5224 109.553 44.3538 105.377C45.1782 102.162 46.4274 99.0727 48.0682 96.1905" fill="white"/>
<path id="Stroke 4" d="M45.3886 83.7705C45.3886 83.7705 40.9863 84.915 38.7598 85.6785C36.5332 86.442 36.1564 87.711 36.0293 91.629C35.9022 95.547 36.2222 102.512 36.3493 103.539C36.3693 105.107 36.7419 106.65 37.4394 108.053C38.0016 108.935 43.5224 109.553 44.3538 105.377C45.1782 102.162 46.4274 99.0727 48.0682 96.1905" stroke="black" stroke-width="3" stroke-miterlimit="10"/>
</g>
<path id="Stroke 6" d="M77.664 157.294C71.955 147.428 69.9823 135.827 72.1073 124.62" stroke="#4BB4E6" stroke-width="10" stroke-miterlimit="10" stroke-linecap="round" stroke-linejoin="round"/>
<g id="Group 11">
<path id="Fill 8" d="M48.2207 67.5585C48.2207 67.5585 43.0962 68.8905 40.5033 69.7785C37.9104 70.6665 37.4738 72.144 37.3242 76.7085C37.3263 81.3291 37.5759 85.9462 38.0719 90.54C38.2214 91.74 38.371 94.428 38.7418 96.447C39.1126 98.466 46.045 97.5585 47.014 92.706C47.9734 88.9646 49.4273 85.3687 51.337 82.014" fill="white"/>
<path id="Stroke 10" d="M48.2207 67.5585C48.2207 67.5585 43.0962 68.8905 40.5033 69.7785C37.9104 70.6665 37.4738 72.144 37.3242 76.7085C37.3263 81.3291 37.5759 85.9462 38.0719 90.54C38.2214 91.74 38.371 94.428 38.7418 96.447C39.1126 98.466 46.045 97.5585 47.014 92.706C47.9734 88.9646 49.4273 85.3687 51.337 82.014" stroke="black" stroke-width="3" stroke-miterlimit="10"/>
</g>
<path id="Stroke 12" d="M46.3323 49.4219C44.3147 50.3497 42.484 51.6411 40.9311 53.2319C37.9779 56.1449 37.9345 64.3709 38.9513 70.8884" stroke="#FF8AD4" stroke-width="10" stroke-miterlimit="10" stroke-linecap="round"/>
<g id="Group 17">
<path id="Fill 14" d="M93.2487 180C93.2487 180 91.5455 174.12 90.9728 172.29C90.4001 170.46 87.562 169.552 82.7874 164.307C78.1256 158.937 74.7458 152.572 72.9048 145.695C71.0638 138.818 70.8101 131.61 72.163 124.62" fill="white"/>
<path id="Stroke 16" d="M93.2487 180C93.2487 180 91.5455 174.12 90.9728 172.29C90.4001 170.46 87.562 169.552 82.7874 164.307C78.1256 158.937 74.7458 152.572 72.9048 145.695C71.0638 138.818 70.8101 131.61 72.163 124.62" stroke="black" stroke-width="3" stroke-miterlimit="10"/>
</g>
<g id="Group 21">
<path id="Fill 18" d="M59.0605 30.636C59.0605 30.636 52.9296 20.208 52.0564 19.1085C51.1831 18.009 48.4451 15.15 47.1322 13.7295C45.8193 12.309 37.6997 17.55 43.0619 28.86C46.4986 36.0044 50.4868 42.8683 54.9902 49.389" fill="white"/>
<path id="Stroke 20" d="M59.0605 30.636C59.0605 30.636 52.9296 20.208 52.0564 19.1085C51.1831 18.009 48.4451 15.15 47.1322 13.7295C45.8193 12.309 37.6997 17.55 43.0619 28.86C46.4986 36.0044 50.4868 42.8683 54.9902 49.389" stroke="black" stroke-width="3" stroke-miterlimit="10"/>
</g>
<g id="Group 25">
<path id="Fill 22" d="M55.1729 50.3009C52.4284 49.0239 49.3343 48.7142 46.3923 49.4219C44.3748 50.3486 42.5441 51.639 40.9912 53.2289C38.0379 56.1449 37.9945 64.3709 39.0114 70.8884C40.0282 77.4059 40.3108 79.7384 42.2592 79.9169C43.8204 79.8336 45.3265 79.3099 46.6042 78.4061C47.8818 77.5023 48.8793 76.2551 49.4817 74.8079C50.675 71.5499 49.4189 59.2364 49.4189 59.2364" fill="white"/>
<path id="Stroke 24" d="M55.1729 50.3009C52.4284 49.0239 49.3343 48.7142 46.3923 49.4219C44.3748 50.3486 42.5441 51.639 40.9912 53.2289C38.0379 56.1449 37.9945 64.3709 39.0114 70.8884C40.0282 77.4059 40.3108 79.7384 42.2592 79.9169C43.8204 79.8336 45.3265 79.3099 46.6042 78.4061C47.8818 77.5023 48.8793 76.2551 49.4817 74.8079C50.675 71.5499 49.4189 59.2364 49.4189 59.2364" stroke="black" stroke-width="3" stroke-miterlimit="10"/>
</g>
<path id="Fill 26" d="M57.0043 39.5745L43.3923 18.645C43.3923 18.645 41.9493 22.944 45.6039 30.0825C49.2585 37.221 55.174 46.866 55.174 46.866L57.0043 39.5745Z" fill="#FF7900"/>
<path id="Fill 28" d="M45.9211 56.286C45.9211 56.286 46.428 75.24 43.6362 77.589C43.6362 77.589 49.2348 76.6995 48.3824 66.7215C48.1396 62.2985 47.4726 57.9092 46.3906 53.6145L45.9211 56.286Z" fill="#FF7900"/>
<path id="Fill 30" d="M44.4824 84.5924C44.4824 84.5924 44.8967 103.546 42.6133 105.894C42.6133 105.894 47.192 105.004 46.5011 95.0264C46.3038 90.6213 45.7573 86.239 44.8667 81.9209L44.4824 84.5924Z" fill="#FF7900"/>
</g>
<g id="Group 40">
<g id="Group 35">
<g id="Clip path group">
<mask id="mask0_716_21062" style="mask-type:luminance" maskUnits="userSpaceOnUse" x="37" y="0" width="93" height="142">
<g id="clip-path">
<path id="Clip 34" d="M37.3062 0.00146484H129.018V141.265H37.3062V0.00146484Z" fill="white"/>
</g>
</mask>
<g mask="url(#mask0_716_21062)">
<g id="Group 35_2">
<path id="Fill 33" d="M67.5358 0.0224567L123.871 4.73696C124.609 4.80109 125.328 5.01076 125.985 5.35396C126.642 5.69716 127.226 6.16714 127.702 6.73695C128.178 7.30675 128.537 7.96519 128.759 8.6745C128.98 9.38382 129.06 10.1301 128.994 10.8705L117.755 136.123C117.687 136.876 117.47 137.608 117.115 138.275C116.76 138.942 116.276 139.53 115.69 140.006C115.105 140.482 114.43 140.834 113.706 141.044C112.981 141.253 112.223 141.314 111.475 141.223L42.2647 132.858C41.487 132.764 40.7375 132.508 40.064 132.107C39.3905 131.705 38.8079 131.168 38.3533 130.528C37.8987 129.888 37.5823 129.16 37.4241 128.39C37.2659 127.621 37.2696 126.827 37.4347 126.058L61.5455 4.45796C61.8345 3.11383 62.6025 1.92167 63.7053 1.10506C64.8082 0.288459 66.1702 -0.0964765 67.5358 0.0224567Z" fill="black"/>
</g>
</g>
</g>
</g>
<path id="Fill 36" d="M68.7933 2.98646L122.026 8.06546C122.452 8.08688 122.868 8.19946 123.247 8.39566C123.626 8.59185 123.959 8.86711 124.223 9.20296C124.488 9.53881 124.677 9.92748 124.779 10.3429C124.882 10.7583 124.894 11.1908 124.816 11.6115L112.607 133.558C112.461 134.49 111.96 135.328 111.21 135.896C110.46 136.464 109.52 136.718 108.587 136.603L45.2328 129.415C44.2928 129.213 43.4697 128.648 42.9414 127.843C42.4132 127.037 42.2222 126.055 42.4096 125.109L65.2718 5.97746C65.3047 5.54819 65.4223 5.12974 65.6176 4.74637C65.813 4.36301 66.0822 4.02235 66.4098 3.74414C66.7373 3.46592 67.1167 3.2557 67.5258 3.12563C67.935 2.99557 68.3658 2.94827 68.7933 2.98646Z" fill="white"/>
<path id="Fill 38" d="M76.4453 3.711C79.0367 3.9585 78.1679 7.977 82.9231 8.4105C87.6783 8.844 104.433 10.347 107.482 10.611C111.148 10.9335 112.605 7.161 116.281 7.5135" fill="black"/>
</g>
<g id="Group 53">
<path id="Fill 41" d="M82.0856 124.948C82.0856 125.978 81.7814 126.984 81.2114 127.839C80.6415 128.695 79.8315 129.362 78.8837 129.756C77.9359 130.15 76.893 130.253 75.8868 130.052C74.8806 129.851 73.9563 129.356 73.2308 128.628C72.5053 127.901 72.0111 126.974 71.8108 125.965C71.6105 124.955 71.713 123.909 72.1054 122.958C72.4978 122.007 73.1624 121.195 74.0152 120.623C74.8681 120.051 75.8709 119.745 76.8968 119.745C77.5781 119.745 78.2528 119.879 78.8823 120.141C79.5118 120.402 80.0839 120.785 80.5657 121.268C81.0476 121.752 81.4298 122.325 81.6906 122.957C81.9513 123.588 82.0856 124.265 82.0856 124.948Z" fill="white"/>
<path id="Stroke 43" d="M82.0856 124.948C82.0856 125.978 81.7814 126.984 81.2114 127.839C80.6415 128.695 79.8315 129.362 78.8837 129.756C77.9359 130.15 76.893 130.253 75.8868 130.052C74.8806 129.851 73.9563 129.356 73.2308 128.628C72.5053 127.901 72.0111 126.974 71.8108 125.965C71.6105 124.955 71.713 123.909 72.1054 122.958C72.4978 122.007 73.1624 121.195 74.0152 120.623C74.8681 120.051 75.8709 119.745 76.8968 119.745C77.5781 119.745 78.2528 119.879 78.8823 120.141C79.5118 120.402 80.0839 120.785 80.5657 121.268C81.0475 121.752 81.4298 122.325 81.6906 122.957C81.9513 123.588 82.0856 124.265 82.0856 124.948Z" stroke="black" stroke-miterlimit="10"/>
<path id="Fill 45" d="M96.9 6.0044C96.9 6.24702 96.8283 6.48419 96.6939 6.68593C96.5596 6.88768 96.3687 7.04495 96.1452 7.13786C95.9218 7.23077 95.6759 7.25516 95.4387 7.20794C95.2015 7.16071 94.9835 7.044 94.8124 6.87255C94.6413 6.7011 94.5247 6.48261 94.4773 6.2447C94.4299 6.00678 94.4539 5.76012 94.5463 5.53589C94.6386 5.31166 94.7952 5.11993 94.9961 4.98492C95.1971 4.84992 95.4334 4.7777 95.6753 4.7774C95.9997 4.7774 96.3108 4.90668 96.5402 5.13678C96.7696 5.36689 96.9 5.67898 96.9 6.0044Z" fill="white"/>
<path id="Fill 49" d="M88.1359 67.3755L84.5337 67.071L85.8974 58.1565L90.216 58.551L88.1359 67.3755Z" fill="white"/>
<path id="Fill 51" d="M87.1504 72.7093L83.6902 72.2908L84.3332 68.7418L87.8218 69.0823L87.1504 72.7093Z" fill="white"/>
<g id="&#206;&#169;element/6.functional/A.success/_light">
<path id="Path" d="M90.0095 49.5023C87.0825 48.7702 84.0048 48.9253 81.1656 49.9478C78.3264 50.9704 75.8533 52.8145 74.0589 55.247C72.2645 57.6796 71.2296 60.5912 71.0848 63.6138C70.9401 66.6363 71.6921 69.6341 73.2458 72.2279C74.7995 74.8218 77.085 76.8952 79.8135 78.186C82.5419 79.4768 85.5906 79.9271 88.5741 79.4798C91.5576 79.0325 94.3419 77.7078 96.5749 75.6732C98.8078 73.6386 100.389 70.9854 101.119 68.0492C102.098 64.112 101.477 59.946 99.3935 56.4678C97.3101 52.9895 93.9346 50.484 90.0095 49.5023Z" fill="#43A047"/>
<path id="Path_2" d="M95.4423 60.693L83.796 69.6529C83.6261 69.7842 83.4289 69.8753 83.219 69.9193C83.0091 69.9633 82.792 69.9592 82.5839 69.9071C82.3758 69.8551 82.1822 69.7565 82.0175 69.6188C81.8527 69.4811 81.7212 69.3078 81.6327 69.1118L78.5878 62.414C78.4413 62.0916 78.418 61.7265 78.5223 61.3881C78.6266 61.0496 78.8512 60.7614 79.1535 60.5782L79.8467 60.1579C80.1552 59.9693 80.5238 59.9056 80.8775 59.9797C81.2312 60.0538 81.5435 60.2602 81.751 60.5569L83.6968 64.2483L93.8827 58.2933C94.1995 58.1123 94.5732 58.0595 94.9275 58.1456C95.2818 58.2317 95.5901 58.4501 95.7892 58.7564C95.9884 59.0627 96.0636 59.4336 95.9994 59.7936C95.9352 60.1536 95.7364 60.4754 95.4437 60.6934L95.4423 60.693Z" fill="white"/>
</g>
</g>
<g id="Group 64">
<path id="Stroke 54" d="M136.756 162.639C136.287 161.226 136.831 158.34 137.55 155.449C138.27 152.559 143.583 125.19 144.208 122.481C144.957 119.34 145.019 116.074 144.389 112.906C143.921 110.412 140.867 91.3379 138.615 77.5889" stroke="#085EBD" stroke-width="11" stroke-miterlimit="10" stroke-linecap="round" stroke-linejoin="round"/>
<g id="Group 59">
<path id="Fill 56" d="M141.685 180C141.685 180 137.272 164.049 136.803 162.636C136.333 161.223 136.876 158.337 137.597 155.446C138.317 152.556 143.629 125.19 144.26 122.479C145.009 119.338 145.07 116.072 144.439 112.905C143.719 109.111 137.037 66.9869 136.272 63.5369C135.506 60.0869 125.667 61.0394 124.471 69.6059C123.274 78.1724 122.337 95.8964 121.861 99.3464C121.386 102.796 120.614 103.176 117.592 107.317C114.859 111.07 106.162 120.126 100.097 147.636" fill="white"/>
<path id="Stroke 58" d="M141.685 180C141.685 180 137.272 164.049 136.803 162.636C136.333 161.223 136.876 158.337 137.597 155.446C138.317 152.556 143.629 125.19 144.26 122.479C145.009 119.338 145.07 116.072 144.439 112.905C143.719 109.111 137.037 66.9869 136.272 63.5369C135.506 60.0869 125.667 61.0394 124.471 69.6059C123.274 78.1724 122.337 95.8964 121.861 99.3464C121.386 102.796 120.614 103.176 117.592 107.317C114.859 111.07 106.162 120.126 100.097 147.636" stroke="black" stroke-width="3" stroke-miterlimit="10"/>
</g>
<path id="Fill 60" d="M126.929 69.0974C126.929 69.0974 125.313 96.1949 125.029 99.8294C124.745 103.464 123.483 106.447 119.562 110.092C115.641 113.737 108.828 125.638 105.09 140.623C105.09 140.623 110.343 124.855 122.484 115.855C132.094 108.732 127.729 84.4229 128.118 71.9624C128.208 69.2474 126.929 69.0974 126.929 69.0974Z" fill="#FF7900"/>
<path id="Fill 62" d="M140.703 122.145C136.221 131.302 129.941 156.276 115.032 162.769L119.282 180.001H136.221L131.735 161.271C131.735 161.271 140.453 132.715 140.703 122.145Z" fill="black"/>
</g>
</g>
</g>
</g>
</svg>
